# xmcd
#
# Track frame offsets: 
#        150
#        13462
#        31975
#        49037
#        65312
#        78237
#        90387
#        105612
#        121262
#        134850
#        147787
#        165187
#
# Disc length: 2326 seconds
#
# Revision: 1
# Processed by: cddbd v1.5.1PL0 Copyright (c) Steve Scherf et al.
# Submitted via: ExactAudioCopy v0.90b4
#
DISCID=9709140c
DTITLE=Françoise Hardy - A Suivre
DYEAR=1981
DGENRE=Chanson Française
TTITLE0=ça va comme ça
TTITLE1=Voyou - Voyou
TTITLE2=ça m'suffit
TTITLE3=Sentimentale
TTITLE4=Plus personne
TTITLE5=Rêve de starlett
TTITLE6=L'amour c'est trop fort
TTITLE7=Villégiature
TTITLE8=Vert ouvert
TTITLE9=Coupure de courant
TTITLE10=Tamalou
TTITLE11=à suivre
EXTD=
EXTT0=
EXTT1=
EXTT2=
EXTT3=
EXTT4=
EXTT5=
EXTT6=
EXTT7=
EXTT8=
EXTT9=
EXTT10=
EXTT11=
PLAYORDER=
